Coordinates
version=1
nRows=11
nColumns=36
inDegrees=yes

Units are S.I. units (second, meters, Newtons, ...)
If the header above contains a line with 'inDegrees', this indicates whether rotational values are in degrees (yes) or radians (no).

endheader
time	pelvis_tilt	pelvis_list	pelvis_rotation	pelvis_tx	pelvis_ty	pelvis_tz	hip_flexion_r	hip_adduction_r	hip_rotation_r	knee_angle_r	knee_angle_r_beta	ankle_angle_r	subtalar_angle_r	mtp_angle_r	hip_flexion_l	hip_adduction_l	hip_rotation_l	knee_angle_l	knee_angle_l_beta	ankle_angle_l	subtalar_angle_l	mtp_angle_l	lumbar_extension	lumbar_bending	lumbar_rotation	arm_flex_r	arm_add_r	arm_rot_r	elbow_flex_r	pro_sup_r	arm_flex_l	arm_add_l	arm_rot_l	elbow_flex_l	pro_sup_l
      1.25000000	      2.91494163	      2.32597957	     94.74792808	     -0.23213211	      0.96269940	     -0.40521931	      8.89742791	      4.60192011	    -11.80047501	     19.19084804	      0.33494348	      6.31689950	     -3.98866404	     -7.49999998	     13.58014366	     -5.12569846	     -0.04928872	     65.91237118	      1.15038789	    -12.82648512	    -27.63191670	     -7.49999998	    -14.92710256	      4.11103146	     -0.71584764	      1.92017525	     -5.81298290	    -34.56616178	     41.24544254	    105.04828266	      8.67496839	     -3.34397851	    -30.16395711	     32.22019648	     81.32306953
      1.26000000	      2.61113595	      1.82457604	     94.59110529	     -0.23142328	      0.96318811	     -0.41593710	      8.46993575	      4.44015031	    -11.30917368	     18.78422858	      0.32784664	      7.07066567	     -3.96817694	     -7.49999997	     15.59030916	     -4.70920382	     -0.48957945	     65.73926687	      1.14736665	    -10.82988645	    -28.14999217	     -7.49999997	    -14.56390630	      3.62816829	     -0.45512030	      1.94789036	     -5.88701011	    -34.17405181	     41.87761899	    103.66627355	      7.93510288	     -3.44414596	    -30.13457441	     32.17762625	     80.36384892
      1.27000000	      2.37161309	      2.29879804	     94.44422599	     -0.23075156	      0.96497149	     -0.42660803	      6.87959210	      4.37112995	    -11.41333811	     18.06929348	      0.31536866	      7.22032267	     -3.16385035	     -7.49999995	     16.39367527	     -4.56821570	     -1.07615606	     65.13892806	      1.13688877	     -8.36928937	    -27.63361140	     -7.49999995	    -15.33367341	      3.33220303	     -0.19349029	      2.38472325	     -5.86696523	    -34.40621744	     42.56503842	    107.80491641	      8.02983515	     -3.36529297	    -31.59651630	     31.19183777	     82.13489988
      1.28000000	      2.05079272	      2.30933907	     94.00446385	     -0.22975388	      0.96588849	     -0.43759336	      5.83519054	      4.18356641	    -11.25344529	     17.52462939	      0.30586248	      7.73913651	     -2.52569090	     -7.49999994	     17.51227428	     -4.42137323	     -2.04201056	     64.18064799	      1.12016362	     -6.57690701	    -27.50526142	     -7.49999994	    -15.52859738	      2.83410863	      0.27707513	      2.57450239	     -6.01532150	    -33.89205261	     43.16349633	    106.95946118	      7.42127570	     -3.51703965	    -31.64492562	     30.95411536	     81.72870863
      1.29000000	      1.85307432	      2.36818156	     93.73068063	     -0.22883573	      0.96664863	     -0.44856407	      4.72335629	      4.12118900	    -11.15566143	     16.92291460	      0.29536058	      8.17805310	     -1.82587346	     -7.49999994	     18.53957179	     -4.37590870	     -2.83466203	     62.96464379	      1.09894035	     -5.02139512	    -27.13635290	     -7.49999994	    -15.77549578	      2.48678200	      0.62168811	      2.72115395	     -6.17829704	    -33.25422360	     43.87133812	    105.82859574	      6.87069405	     -3.61867105	    -31.91028589	     30.79180548	     80.97456409
      1.30000000	      1.57881878	      2.29511455	     93.41142150	     -0.22809444	      0.96710027	     -0.45951522	      3.84466865	      3.89144283	    -11.27116583	     16.50208240	      0.28801567	      8.86933011	     -0.71446439	     -7.49999992	     19.58957678	     -4.26772765	     -3.81797714	     61.39604230	      1.07156309	     -3.87244603	    -26.91224221	     -7.49999992	    -15.86857768	      2.08012542	      0.90615722	      3.03504074	     -6.29906868	    -32.91820228	     44.34046649	    107.15146483	      6.42141596	     -3.58154841	    -33.05584027	     30.41113434	     81.84796591
      1.31000000	      1.37129912	      2.28969729	     92.93879298	     -0.22713397	      0.96735704	     -0.47034991	      2.93284794	      3.73707878	    -11.22099102	     16.13048480	      0.28153007	      9.24009226	     -0.08194188	     -7.49999992	     20.43069195	     -4.26754078	     -4.89142424	     59.53408563	      1.03906581	     -3.06131620	    -26.45852585	     -7.49999992	    -16.02011524	      1.70582811	      1.36845694	      3.26607893	     -6.57430190	    -32.09011090	     44.91273579	    105.34402216	      5.84837540	     -3.68616600	    -33.13497405	     30.18676700	     80.24664663
      1.32000000	      1.20567919	      2.51309647	     92.46566557	     -0.22621468	      0.96775343	     -0.48145331	      1.72516184	      3.62921375	    -11.22603044	     15.69159597	      0.27387001	      9.84864783	      1.04145166	     -7.49999991	     20.87332041	     -4.37052180	     -6.11636568	     57.31362189	      1.00031141	     -2.26382287	    -25.92771820	     -7.49999991	    -16.43349299	      1.38473896	      1.82867262	      3.49504967	     -6.82348540	    -31.42557087	     45.61588143	    104.43112219	      5.37154685	     -3.68800665	    -33.78891428	     29.96673002	     79.68267392
      1.33000000	      1.11360180	      2.55840933	     91.94027930	     -0.22522122	      0.96768245	     -0.49255653	      0.74385744	      3.54510380	    -11.34492743	     15.32143203	      0.26740944	     10.27011957	      2.09398962	     -7.49999991	     21.39329779	     -4.55354783	     -7.38864569	     54.84194294	      0.95717247	     -1.62783090	    -25.42403090	     -7.49999991	    -16.61420852	      1.14175992	      2.33583963	      3.81523996	     -7.03729726	    -30.98218178	     46.10767291	    105.11138577	      4.79550608	     -3.70332265	    -34.48963751	     29.74596378	     80.23198681
      1.34000000	      1.07814771	      2.78141512	     91.45542530	     -0.22426107	      0.96756681	     -0.50377231	     -0.48472813	      3.53385147	    -11.53312566	     14.82889934	      0.25881312	     10.74735912	      3.21456295	     -7.49999991	     21.70036991	     -4.61270603	     -8.30249492	     52.22505239	      0.91149912	     -1.25027317	    -25.35673425	     -7.49999991	    -16.98207739	      0.95223549	      2.79961263	      4.06572406	     -7.29358313	    -30.38261839	     46.78710824	    104.97564323	      4.25258587	     -3.67338911	    -35.28370382	     29.58678931	     80.08654947
      1.35000000	      0.97015395	      2.95872195	     90.88356419	     -0.22334668	      0.96737159	     -0.51501003	     -1.62553731	      3.41887895	    -11.51969485	     14.43736190	      0.25197950	     11.16783102	      3.95097695	     -7.49999991	     21.75775118	     -4.83812630	     -9.99968739	     49.10144744	      0.85698193	     -0.94565793	    -24.79749221	     -7.49999991	    -17.28660657	      0.66097887	      3.37916480	      4.33600446	     -7.61396305	    -29.71795714	     47.24994863	    104.28155794	      3.73234232	     -3.68298314	    -35.86730718	     29.35210946	     79.70178545
